<svg width="212" height="123" viewBox="0 0 212 123" fill="none" xmlns="http://www.w3.org/2000/svg">
<path d="M2.592 36V10.62H20.232V14.976H7.956V20.916H19.368V25.308H7.956V31.644H20.232V36H2.592ZM20.7588 36L29.3988 25.38V27.792L21.2268 17.748H27.6348L32.4948 24.12H30.5508L35.4468 17.748H41.8188L33.6828 27.828V25.344L42.3228 36H35.8788L30.5508 29.16H32.4948L27.1308 36H20.7588ZM43.8218 43.776V22.5C43.8218 21.732 43.7978 20.952 43.7498 20.16C43.7018 19.344 43.6298 18.54 43.5338 17.748H48.7538L49.1858 21.312H48.7898C49.1498 20.112 49.9058 19.164 51.0578 18.468C52.2098 17.748 53.5298 17.388 55.0178 17.388C56.6018 17.388 57.9938 17.772 59.1938 18.54C60.3938 19.284 61.3298 20.364 62.0018 21.78C62.6978 23.196 63.0458 24.888 63.0458 26.856C63.0458 28.848 62.6978 30.552 62.0018 31.968C61.3298 33.384 60.3938 34.476 59.1938 35.244C57.9938 36.012 56.6018 36.396 55.0178 36.396C53.5538 36.396 52.2458 36.048 51.0938 35.352C49.9658 34.656 49.2098 33.732 48.8258 32.58H49.2578V43.776H43.8218ZM53.3618 32.292C54.6338 32.292 55.6538 31.848 56.4218 30.96C57.1898 30.072 57.5738 28.704 57.5738 26.856C57.5738 25.008 57.1898 23.652 56.4218 22.788C55.6538 21.924 54.6338 21.492 53.3618 21.492C52.1138 21.492 51.0938 21.924 50.3018 22.788C49.5338 23.652 49.1498 25.008 49.1498 26.856C49.1498 28.704 49.5338 30.072 50.3018 30.96C51.0938 31.848 52.1138 32.292 53.3618 32.292ZM66.5679 36V9.504H72.0039V36H66.5679ZM85.0868 36.396C83.1428 36.396 81.4508 36.012 80.0108 35.244C78.5948 34.452 77.4908 33.348 76.6988 31.932C75.9308 30.516 75.5468 28.824 75.5468 26.856C75.5468 24.912 75.9308 23.232 76.6988 21.816C77.4908 20.4 78.5948 19.308 80.0108 18.54C81.4508 17.772 83.1428 17.388 85.0868 17.388C87.0308 17.388 88.7228 17.772 90.1628 18.54C91.6028 19.308 92.7068 20.4 93.4748 21.816C94.2668 23.232 94.6628 24.912 94.6628 26.856C94.6628 28.824 94.2668 30.516 93.4748 31.932C92.7068 33.348 91.6028 34.452 90.1628 35.244C88.7228 36.012 87.0308 36.396 85.0868 36.396ZM85.0868 32.292C86.3348 32.292 87.3188 31.848 88.0388 30.96C88.7828 30.072 89.1548 28.704 89.1548 26.856C89.1548 25.008 88.7828 23.652 88.0388 22.788C87.3188 21.924 86.3348 21.492 85.0868 21.492C83.8388 21.492 82.8428 21.924 82.0988 22.788C81.3788 23.652 81.0188 25.008 81.0188 26.856C81.0188 28.704 81.3788 30.072 82.0988 30.96C82.8428 31.848 83.8388 32.292 85.0868 32.292ZM98.1374 36V22.572C98.1374 21.78 98.1134 20.976 98.0654 20.16C98.0414 19.344 97.9814 18.54 97.8854 17.748H103.105L103.717 23.076H102.889C103.129 21.78 103.513 20.712 104.041 19.872C104.593 19.032 105.265 18.408 106.057 18C106.873 17.592 107.797 17.388 108.829 17.388C109.285 17.388 109.645 17.412 109.909 17.46C110.173 17.484 110.437 17.544 110.701 17.64L110.665 22.428C110.161 22.212 109.729 22.08 109.369 22.032C109.033 21.96 108.601 21.924 108.073 21.924C107.065 21.924 106.225 22.116 105.553 22.5C104.905 22.884 104.413 23.448 104.077 24.192C103.765 24.936 103.609 25.836 103.609 26.892V36H98.1374ZM121.838 36.396C118.67 36.396 116.198 35.544 114.422 33.84C112.646 32.136 111.758 29.82 111.758 26.892C111.758 24.996 112.13 23.34 112.874 21.924C113.642 20.508 114.698 19.404 116.042 18.612C117.41 17.796 119.006 17.388 120.83 17.388C122.63 17.388 124.13 17.772 125.33 18.54C126.554 19.308 127.466 20.388 128.066 21.78C128.69 23.148 129.002 24.744 129.002 26.568V27.828H116.222V25.128H125.042L124.43 25.632C124.43 24.12 124.118 22.98 123.494 22.212C122.894 21.42 122.018 21.024 120.866 21.024C119.594 21.024 118.61 21.492 117.914 22.428C117.242 23.364 116.906 24.708 116.906 26.46V27.036C116.906 28.812 117.338 30.132 118.202 30.996C119.09 31.86 120.362 32.292 122.018 32.292C123.002 32.292 123.926 32.172 124.79 31.932C125.678 31.668 126.518 31.26 127.31 30.708L128.822 34.308C127.91 34.98 126.854 35.496 125.654 35.856C124.478 36.216 123.206 36.396 121.838 36.396ZM151.143 36.396C148.767 36.396 146.979 35.808 145.779 34.632C144.579 33.432 143.979 31.644 143.979 29.268V21.816H140.523V17.748H143.979V13.284L149.415 11.952V17.748H154.095V21.816H149.415V28.98C149.415 30.132 149.655 30.924 150.135 31.356C150.615 31.788 151.227 32.004 151.971 32.004C152.427 32.004 152.799 31.98 153.087 31.932C153.399 31.86 153.723 31.764 154.059 31.644V35.856C153.603 36.048 153.123 36.18 152.619 36.252C152.115 36.348 151.623 36.396 151.143 36.396ZM156.884 36V9.504H162.32V21.168H161.78C162.356 19.944 163.208 19.008 164.336 18.36C165.464 17.712 166.76 17.388 168.224 17.388C170.36 17.388 171.956 18.012 173.012 19.26C174.068 20.484 174.596 22.368 174.596 24.912V36H169.16V25.164C169.16 23.892 168.92 22.98 168.44 22.428C167.984 21.876 167.264 21.6 166.28 21.6C165.08 21.6 164.12 21.972 163.4 22.716C162.68 23.46 162.32 24.456 162.32 25.704V36H156.884ZM188.142 36.396C184.974 36.396 182.502 35.544 180.726 33.84C178.95 32.136 178.062 29.82 178.062 26.892C178.062 24.996 178.434 23.34 179.178 21.924C179.946 20.508 181.002 19.404 182.346 18.612C183.714 17.796 185.31 17.388 187.134 17.388C188.934 17.388 190.434 17.772 191.634 18.54C192.858 19.308 193.77 20.388 194.37 21.78C194.994 23.148 195.306 24.744 195.306 26.568V27.828H182.526V25.128H191.346L190.734 25.632C190.734 24.12 190.422 22.98 189.798 22.212C189.198 21.42 188.322 21.024 187.17 21.024C185.898 21.024 184.914 21.492 184.218 22.428C183.546 23.364 183.21 24.708 183.21 26.46V27.036C183.21 28.812 183.642 30.132 184.506 30.996C185.394 31.86 186.666 32.292 188.322 32.292C189.306 32.292 190.23 32.172 191.094 31.932C191.982 31.668 192.822 31.26 193.614 30.708L195.126 34.308C194.214 34.98 193.158 35.496 191.958 35.856C190.782 36.216 189.51 36.396 188.142 36.396ZM7.38 81L0.036 62.748H5.616L10.44 75.888H9.504L14.364 62.748H17.964L22.788 75.888H22.032L26.784 62.748H32.04L24.732 81H20.052L14.868 67.536H17.064L12.06 81H7.38ZM42.5126 81.396C40.5686 81.396 38.8766 81.012 37.4366 80.244C36.0206 79.452 34.9166 78.348 34.1246 76.932C33.3566 75.516 32.9726 73.824 32.9726 71.856C32.9726 69.912 33.3566 68.232 34.1246 66.816C34.9166 65.4 36.0206 64.308 37.4366 63.54C38.8766 62.772 40.5686 62.388 42.5126 62.388C44.4566 62.388 46.1486 62.772 47.5886 63.54C49.0286 64.308 50.1326 65.4 50.9006 66.816C51.6926 68.232 52.0886 69.912 52.0886 71.856C52.0886 73.824 51.6926 75.516 50.9006 76.932C50.1326 78.348 49.0286 79.452 47.5886 80.244C46.1486 81.012 44.4566 81.396 42.5126 81.396ZM42.5126 77.292C43.7606 77.292 44.7446 76.848 45.4646 75.96C46.2086 75.072 46.5806 73.704 46.5806 71.856C46.5806 70.008 46.2086 68.652 45.4646 67.788C44.7446 66.924 43.7606 66.492 42.5126 66.492C41.2646 66.492 40.2686 66.924 39.5246 67.788C38.8046 68.652 38.4446 70.008 38.4446 71.856C38.4446 73.704 38.8046 75.072 39.5246 75.96C40.2686 76.848 41.2646 77.292 42.5126 77.292ZM55.5632 81V67.572C55.5632 66.78 55.5392 65.976 55.4912 65.16C55.4672 64.344 55.4072 63.54 55.3112 62.748H60.5312L61.1432 68.076H60.3152C60.5552 66.78 60.9392 65.712 61.4672 64.872C62.0192 64.032 62.6912 63.408 63.4832 63C64.2992 62.592 65.2232 62.388 66.2552 62.388C66.7112 62.388 67.0712 62.412 67.3352 62.46C67.5992 62.484 67.8632 62.544 68.1272 62.64L68.0912 67.428C67.5872 67.212 67.1552 67.08 66.7952 67.032C66.4592 66.96 66.0272 66.924 65.4992 66.924C64.4912 66.924 63.6512 67.116 62.9792 67.5C62.3312 67.884 61.8392 68.448 61.5032 69.192C61.1912 69.936 61.0352 70.836 61.0352 71.892V81H55.5632ZM70.4 81V54.504H75.836V81H70.4ZM87.4429 81.396C85.8589 81.396 84.4549 81.012 83.2309 80.244C82.0309 79.476 81.0829 78.384 80.3869 76.968C79.7149 75.552 79.3789 73.848 79.3789 71.856C79.3789 69.888 79.7149 68.196 80.3869 66.78C81.0589 65.364 82.0069 64.284 83.2309 63.54C84.4549 62.772 85.8589 62.388 87.4429 62.388C88.8829 62.388 90.1669 62.736 91.2949 63.432C92.4469 64.104 93.2149 65.016 93.5989 66.168H93.1309V54.504H98.5669V81H93.2029V77.436H93.6709C93.2869 78.636 92.5189 79.596 91.3669 80.316C90.2149 81.036 88.9069 81.396 87.4429 81.396ZM89.0629 77.292C90.3109 77.292 91.3189 76.848 92.0869 75.96C92.8549 75.072 93.2389 73.704 93.2389 71.856C93.2389 70.008 92.8549 68.652 92.0869 67.788C91.3189 66.924 90.3109 66.492 89.0629 66.492C87.8149 66.492 86.7949 66.924 86.0029 67.788C85.2349 68.652 84.8509 70.008 84.8509 71.856C84.8509 73.704 85.2349 75.072 86.0029 75.96C86.7949 76.848 87.8149 77.292 89.0629 77.292ZM122.365 81.396C119.197 81.396 116.725 80.544 114.949 78.84C113.173 77.136 112.285 74.82 112.285 71.892C112.285 69.996 112.657 68.34 113.401 66.924C114.169 65.508 115.225 64.404 116.569 63.612C117.937 62.796 119.533 62.388 121.357 62.388C123.157 62.388 124.657 62.772 125.857 63.54C127.081 64.308 127.993 65.388 128.593 66.78C129.217 68.148 129.529 69.744 129.529 71.568V72.828H116.749V70.128H125.569L124.957 70.632C124.957 69.12 124.645 67.98 124.021 67.212C123.421 66.42 122.545 66.024 121.393 66.024C120.121 66.024 119.137 66.492 118.441 67.428C117.769 68.364 117.433 69.708 117.433 71.46V72.036C117.433 73.812 117.865 75.132 118.729 75.996C119.617 76.86 120.889 77.292 122.545 77.292C123.529 77.292 124.453 77.172 125.317 76.932C126.205 76.668 127.045 76.26 127.837 75.708L129.349 79.308C128.437 79.98 127.381 80.496 126.181 80.856C125.005 81.216 123.733 81.396 122.365 81.396ZM140.07 81.396C138.486 81.396 137.094 81.012 135.894 80.244C134.694 79.476 133.758 78.384 133.086 76.968C132.414 75.552 132.078 73.848 132.078 71.856C132.078 69.888 132.414 68.196 133.086 66.78C133.758 65.364 134.694 64.284 135.894 63.54C137.094 62.772 138.486 62.388 140.07 62.388C141.534 62.388 142.842 62.748 143.994 63.468C145.17 64.164 145.938 65.112 146.298 66.312H145.902L146.334 62.748H151.554C151.482 63.54 151.41 64.344 151.338 65.16C151.29 65.952 151.266 66.732 151.266 67.5V81H145.866L145.83 77.58H146.262C145.878 78.732 145.11 79.656 143.958 80.352C142.806 81.048 141.51 81.396 140.07 81.396ZM141.726 77.292C142.974 77.292 143.982 76.848 144.75 75.96C145.518 75.072 145.902 73.704 145.902 71.856C145.902 70.008 145.518 68.652 144.75 67.788C143.982 66.924 142.974 66.492 141.726 66.492C140.478 66.492 139.47 66.924 138.702 67.788C137.934 68.652 137.55 70.008 137.55 71.856C137.55 73.704 137.922 75.072 138.666 75.96C139.434 76.848 140.454 77.292 141.726 77.292ZM162.456 81.396C160.824 81.396 159.336 81.216 157.992 80.856C156.648 80.496 155.508 79.992 154.572 79.344L155.976 75.744C156.912 76.32 157.944 76.776 159.072 77.112C160.224 77.448 161.364 77.616 162.492 77.616C163.548 77.616 164.328 77.448 164.832 77.112C165.336 76.776 165.588 76.32 165.588 75.744C165.588 75.264 165.42 74.892 165.084 74.628C164.772 74.364 164.28 74.172 163.608 74.052L159.9 73.368C158.34 73.056 157.152 72.48 156.336 71.64C155.52 70.8 155.112 69.708 155.112 68.364C155.112 67.188 155.424 66.156 156.048 65.268C156.696 64.356 157.62 63.648 158.82 63.144C160.02 62.64 161.424 62.388 163.032 62.388C164.4 62.388 165.696 62.556 166.92 62.892C168.144 63.228 169.188 63.744 170.052 64.44L168.576 67.932C167.832 67.38 166.968 66.936 165.984 66.6C165.024 66.264 164.1 66.096 163.212 66.096C162.06 66.096 161.232 66.288 160.728 66.672C160.224 67.032 159.972 67.5 159.972 68.076C159.972 68.508 160.116 68.868 160.404 69.156C160.716 69.444 161.184 69.66 161.808 69.804L165.552 70.488C167.16 70.776 168.384 71.316 169.224 72.108C170.064 72.9 170.484 73.992 170.484 75.384C170.484 76.656 170.148 77.736 169.476 78.624C168.804 79.512 167.856 80.196 166.632 80.676C165.432 81.156 164.04 81.396 162.456 81.396ZM173.865 81V62.748H179.301V81H173.865ZM173.649 59.76V54.684H179.481V59.76H173.649ZM183.744 81V54.504H189.18V81H183.744ZM193.443 89.172L192.183 84.924C193.311 84.708 194.259 84.456 195.027 84.168C195.819 83.88 196.467 83.496 196.971 83.016C197.475 82.56 197.883 81.96 198.195 81.216L199.095 79.092L198.951 81.18L191.031 62.748H196.755L201.975 75.96H200.859L206.151 62.748H211.551L203.307 81.72C202.707 83.088 202.059 84.216 201.363 85.104C200.691 86.016 199.959 86.736 199.167 87.264C198.375 87.792 197.499 88.2 196.539 88.488C195.603 88.776 194.571 89.004 193.443 89.172Z" fill="#252525"/>
<path d="M6.384 117V101.376H0.24V100.08H13.992V101.376H7.872V117H6.384ZM19.2362 117.192C18.1002 117.192 17.1162 116.944 16.2842 116.448C15.4682 115.952 14.8362 115.24 14.3882 114.312C13.9402 113.384 13.7162 112.272 13.7162 110.976C13.7162 109.696 13.9402 108.592 14.3882 107.664C14.8362 106.736 15.4682 106.024 16.2842 105.528C17.1162 105.016 18.1002 104.76 19.2362 104.76C20.3562 104.76 21.3242 105.016 22.1402 105.528C22.9722 106.024 23.6122 106.736 24.0602 107.664C24.5242 108.592 24.7562 109.696 24.7562 110.976C24.7562 112.272 24.5242 113.384 24.0602 114.312C23.6122 115.24 22.9722 115.952 22.1402 116.448C21.3242 116.944 20.3562 117.192 19.2362 117.192ZM19.2362 115.944C20.4522 115.944 21.4282 115.52 22.1642 114.672C22.9002 113.824 23.2682 112.592 23.2682 110.976C23.2682 109.36 22.9002 108.128 22.1642 107.28C21.4282 106.432 20.4522 106.008 19.2362 106.008C18.0042 106.008 17.0202 106.432 16.2842 107.28C15.5642 108.128 15.2042 109.36 15.2042 110.976C15.2042 112.592 15.5642 113.824 16.2842 114.672C17.0202 115.52 18.0042 115.944 19.2362 115.944ZM33.5259 122.448L33.1659 121.176C33.9179 121 34.5419 120.784 35.0379 120.528C35.5339 120.288 35.9499 119.968 36.2859 119.568C36.6219 119.168 36.9179 118.672 37.1739 118.08L37.7979 116.64L37.7739 117.288L32.5179 104.976H34.1499L38.7339 116.088H38.1339L42.6699 104.976H44.2539L38.6859 118.152C38.3819 118.888 38.0459 119.496 37.6779 119.976C37.3259 120.472 36.9419 120.88 36.5259 121.2C36.1099 121.536 35.6539 121.8 35.1579 121.992C34.6619 122.184 34.1179 122.336 33.5259 122.448ZM51.2987 117.192C50.1627 117.192 49.1787 116.944 48.3467 116.448C47.5307 115.952 46.8987 115.24 46.4507 114.312C46.0027 113.384 45.7787 112.272 45.7787 110.976C45.7787 109.696 46.0027 108.592 46.4507 107.664C46.8987 106.736 47.5307 106.024 48.3467 105.528C49.1787 105.016 50.1627 104.76 51.2987 104.76C52.4187 104.76 53.3867 105.016 54.2027 105.528C55.0347 106.024 55.6747 106.736 56.1227 107.664C56.5867 108.592 56.8187 109.696 56.8187 110.976C56.8187 112.272 56.5867 113.384 56.1227 114.312C55.6747 115.24 55.0347 115.952 54.2027 116.448C53.3867 116.944 52.4187 117.192 51.2987 117.192ZM51.2987 115.944C52.5147 115.944 53.4907 115.52 54.2267 114.672C54.9627 113.824 55.3307 112.592 55.3307 110.976C55.3307 109.36 54.9627 108.128 54.2267 107.28C53.4907 106.432 52.5147 106.008 51.2987 106.008C50.0667 106.008 49.0827 106.432 48.3467 107.28C47.6267 108.128 47.2667 109.36 47.2667 110.976C47.2667 112.592 47.6267 113.824 48.3467 114.672C49.0827 115.52 50.0667 115.944 51.2987 115.944ZM64.2473 117.192C62.8393 117.192 61.7673 116.816 61.0312 116.064C60.3113 115.296 59.9513 114.12 59.9513 112.536V104.976H61.4153V112.44C61.4153 113.656 61.6633 114.544 62.1593 115.104C62.6553 115.664 63.4153 115.944 64.4393 115.944C65.5753 115.944 66.4873 115.576 67.1753 114.84C67.8793 114.088 68.2313 113.096 68.2313 111.864V104.976H69.6953V117H68.2553V114.168H68.5673C68.2313 115.144 67.6793 115.896 66.9113 116.424C66.1593 116.936 65.2713 117.192 64.2473 117.192ZM73.6633 117V107.784C73.6633 107.32 73.6473 106.856 73.6153 106.392C73.5993 105.912 73.5593 105.44 73.4953 104.976H74.9353L75.1273 107.736L74.8393 107.76C74.9993 107.088 75.2873 106.536 75.7033 106.104C76.1193 105.656 76.5993 105.32 77.1433 105.096C77.6873 104.872 78.2473 104.76 78.8233 104.76C79.0313 104.76 79.2233 104.776 79.3993 104.808C79.5913 104.824 79.7673 104.856 79.9273 104.904L79.8793 106.224C79.6873 106.16 79.4953 106.12 79.3033 106.104C79.1113 106.088 78.9033 106.08 78.6793 106.08C77.9593 106.08 77.3273 106.256 76.7833 106.608C76.2553 106.96 75.8473 107.408 75.5593 107.952C75.2713 108.496 75.1273 109.048 75.1273 109.608V117H73.6633ZM92.7077 117.192C91.6357 117.192 90.6997 116.944 89.8997 116.448C89.0997 115.952 88.4837 115.24 88.0517 114.312C87.6197 113.384 87.4037 112.272 87.4037 110.976C87.4037 109.68 87.6197 108.576 88.0517 107.664C88.4837 106.736 89.0997 106.024 89.8997 105.528C90.6997 105.016 91.6357 104.76 92.7077 104.76C93.8117 104.76 94.7637 105.048 95.5637 105.624C96.3797 106.184 96.9237 106.96 97.1957 107.952H96.9077V99.336H98.3717V117H96.9317V113.976H97.1957C96.9237 114.984 96.3797 115.776 95.5637 116.352C94.7637 116.912 93.8117 117.192 92.7077 117.192ZM92.8997 115.944C94.1157 115.944 95.0917 115.52 95.8277 114.672C96.5797 113.824 96.9557 112.592 96.9557 110.976C96.9557 109.36 96.5797 108.128 95.8277 107.28C95.0917 106.432 94.1157 106.008 92.8997 106.008C91.6837 106.008 90.7077 106.432 89.9717 107.28C89.2517 108.128 88.8917 109.36 88.8917 110.976C88.8917 112.592 89.2517 113.824 89.9717 114.672C90.7077 115.52 91.6837 115.944 92.8997 115.944ZM107.511 117.192C105.687 117.192 104.239 116.648 103.167 115.56C102.111 114.472 101.583 112.96 101.583 111.024C101.583 109.744 101.815 108.64 102.279 107.712C102.759 106.784 103.423 106.064 104.271 105.552C105.119 105.024 106.103 104.76 107.223 104.76C108.295 104.76 109.199 104.992 109.935 105.456C110.671 105.904 111.239 106.552 111.639 107.4C112.039 108.232 112.239 109.224 112.239 110.376V111.048H102.639V109.992H111.327L110.919 110.304C110.919 108.944 110.607 107.88 109.983 107.112C109.359 106.328 108.431 105.936 107.199 105.936C105.887 105.936 104.863 106.392 104.127 107.304C103.391 108.2 103.023 109.392 103.023 110.88V111.048C103.023 112.648 103.415 113.864 104.199 114.696C104.999 115.528 106.111 115.944 107.535 115.944C108.271 115.944 108.959 115.832 109.599 115.608C110.239 115.384 110.855 115 111.447 114.456L112.047 115.536C111.535 116.064 110.871 116.472 110.055 116.76C109.239 117.048 108.391 117.192 107.511 117.192ZM119.271 117.192C118.343 117.192 117.471 117.056 116.655 116.784C115.855 116.512 115.191 116.136 114.663 115.656L115.239 114.576C115.831 115.056 116.471 115.416 117.159 115.656C117.847 115.88 118.567 115.992 119.319 115.992C120.343 115.992 121.119 115.8 121.647 115.416C122.175 115.032 122.439 114.512 122.439 113.856C122.439 113.344 122.271 112.928 121.935 112.608C121.599 112.288 121.039 112.048 120.255 111.888L118.095 111.432C117.071 111.192 116.303 110.808 115.791 110.28C115.295 109.752 115.047 109.088 115.047 108.288C115.047 107.6 115.223 106.992 115.575 106.464C115.943 105.936 116.463 105.52 117.135 105.216C117.807 104.912 118.599 104.76 119.511 104.76C120.375 104.76 121.167 104.904 121.887 105.192C122.623 105.464 123.223 105.856 123.687 106.368L123.063 107.424C122.583 106.944 122.039 106.584 121.431 106.344C120.839 106.104 120.207 105.984 119.535 105.984C118.543 105.984 117.791 106.192 117.279 106.608C116.767 107.008 116.511 107.544 116.511 108.216C116.511 108.728 116.671 109.152 116.991 109.488C117.311 109.808 117.815 110.048 118.503 110.208L120.663 110.688C121.751 110.928 122.559 111.296 123.087 111.792C123.615 112.288 123.879 112.944 123.879 113.76C123.879 114.464 123.687 115.08 123.303 115.608C122.919 116.12 122.383 116.512 121.695 116.784C121.007 117.056 120.199 117.192 119.271 117.192ZM127.242 117V104.976H128.706V117H127.242ZM127.002 102.024V100.2H128.97V102.024H127.002ZM132.679 117V107.784C132.679 107.32 132.663 106.856 132.631 106.392C132.615 105.912 132.575 105.44 132.511 104.976H133.951L134.143 107.736L133.855 107.76C134.015 107.088 134.303 106.536 134.719 106.104C135.135 105.656 135.615 105.32 136.159 105.096C136.703 104.872 137.263 104.76 137.839 104.76C138.047 104.76 138.239 104.776 138.415 104.808C138.607 104.824 138.783 104.856 138.943 104.904L138.895 106.224C138.703 106.16 138.511 106.12 138.319 106.104C138.127 106.088 137.919 106.08 137.695 106.08C136.975 106.08 136.343 106.256 135.799 106.608C135.271 106.96 134.863 107.408 134.575 107.952C134.287 108.496 134.143 109.048 134.143 109.608V117H132.679ZM146.09 117.192C144.266 117.192 142.818 116.648 141.746 115.56C140.69 114.472 140.162 112.96 140.162 111.024C140.162 109.744 140.394 108.64 140.858 107.712C141.338 106.784 142.002 106.064 142.85 105.552C143.698 105.024 144.682 104.76 145.802 104.76C146.874 104.76 147.778 104.992 148.514 105.456C149.25 105.904 149.818 106.552 150.218 107.4C150.618 108.232 150.818 109.224 150.818 110.376V111.048H141.218V109.992H149.906L149.498 110.304C149.498 108.944 149.186 107.88 148.562 107.112C147.938 106.328 147.01 105.936 145.778 105.936C144.466 105.936 143.442 106.392 142.706 107.304C141.97 108.2 141.602 109.392 141.602 110.88V111.048C141.602 112.648 141.994 113.864 142.778 114.696C143.578 115.528 144.69 115.944 146.114 115.944C146.85 115.944 147.538 115.832 148.178 115.608C148.818 115.384 149.434 115 150.026 114.456L150.626 115.536C150.114 116.064 149.45 116.472 148.634 116.76C147.818 117.048 146.97 117.192 146.09 117.192Z" fill="#929292"/>
</svg>
