<svg width="290" height="123" viewBox="0 0 290 123" fill="none" xmlns="http://www.w3.org/2000/svg">
<path d="M2.628 36V10.62H7.56L16.38 30.42H15.228L24.048 10.62H28.944V36H23.832V18.756H25.272L17.388 36H14.148L6.228 18.756H7.74V36H2.628ZM40.8943 36.396C39.3103 36.396 37.9183 36.012 36.7183 35.244C35.5183 34.476 34.5823 33.384 33.9103 31.968C33.2383 30.552 32.9023 28.848 32.9023 26.856C32.9023 24.888 33.2383 23.196 33.9103 21.78C34.5823 20.364 35.5183 19.284 36.7183 18.54C37.9183 17.772 39.3103 17.388 40.8943 17.388C42.3583 17.388 43.6663 17.748 44.8183 18.468C45.9943 19.164 46.7623 20.112 47.1223 21.312H46.7263L47.1583 17.748H52.3783C52.3063 18.54 52.2343 19.344 52.1623 20.16C52.1143 20.952 52.0903 21.732 52.0903 22.5V36H46.6903L46.6543 32.58H47.0863C46.7023 33.732 45.9343 34.656 44.7823 35.352C43.6303 36.048 42.3343 36.396 40.8943 36.396ZM42.5503 32.292C43.7983 32.292 44.8063 31.848 45.5743 30.96C46.3423 30.072 46.7263 28.704 46.7263 26.856C46.7263 25.008 46.3423 23.652 45.5743 22.788C44.8063 21.924 43.7983 21.492 42.5503 21.492C41.3023 21.492 40.2943 21.924 39.5263 22.788C38.7583 23.652 38.3743 25.008 38.3743 26.856C38.3743 28.704 38.7463 30.072 39.4903 30.96C40.2583 31.848 41.2783 32.292 42.5503 32.292ZM56.5484 36V9.504H61.9844V25.344H62.0564L68.8244 17.748H75.3044L66.5564 27.468V25.488L75.7724 36H69.1124L62.0564 28.08H61.9844V36H56.5484ZM86.119 36.396C82.951 36.396 80.479 35.544 78.703 33.84C76.927 32.136 76.039 29.82 76.039 26.892C76.039 24.996 76.411 23.34 77.155 21.924C77.923 20.508 78.979 19.404 80.323 18.612C81.691 17.796 83.287 17.388 85.111 17.388C86.911 17.388 88.411 17.772 89.611 18.54C90.835 19.308 91.747 20.388 92.347 21.78C92.971 23.148 93.283 24.744 93.283 26.568V27.828H80.503V25.128H89.323L88.711 25.632C88.711 24.12 88.399 22.98 87.775 22.212C87.175 21.42 86.299 21.024 85.147 21.024C83.875 21.024 82.891 21.492 82.195 22.428C81.523 23.364 81.187 24.708 81.187 26.46V27.036C81.187 28.812 81.619 30.132 82.483 30.996C83.371 31.86 84.643 32.292 86.299 32.292C87.283 32.292 88.207 32.172 89.071 31.932C89.959 31.668 90.799 31.26 91.591 30.708L93.103 34.308C92.191 34.98 91.135 35.496 89.935 35.856C88.759 36.216 87.487 36.396 86.119 36.396ZM115.676 36.396C113.732 36.396 112.028 36.012 110.564 35.244C109.1 34.476 107.972 33.372 107.18 31.932C106.388 30.492 105.992 28.788 105.992 26.82C105.992 24.828 106.388 23.136 107.18 21.744C107.996 20.328 109.124 19.248 110.564 18.504C112.028 17.76 113.732 17.388 115.676 17.388C116.9 17.388 118.088 17.568 119.24 17.928C120.416 18.288 121.376 18.792 122.12 19.44L120.536 23.184C119.936 22.632 119.24 22.224 118.448 21.96C117.68 21.672 116.936 21.528 116.216 21.528C114.752 21.528 113.612 21.984 112.796 22.896C111.98 23.808 111.572 25.128 111.572 26.856C111.572 28.584 111.98 29.904 112.796 30.816C113.612 31.728 114.752 32.184 116.216 32.184C116.912 32.184 117.644 32.052 118.412 31.788C119.204 31.524 119.912 31.128 120.536 30.6L122.12 34.308C121.352 34.956 120.38 35.472 119.204 35.856C118.052 36.216 116.876 36.396 115.676 36.396ZM133.497 36.396C131.553 36.396 129.861 36.012 128.421 35.244C127.005 34.452 125.901 33.348 125.109 31.932C124.341 30.516 123.957 28.824 123.957 26.856C123.957 24.912 124.341 23.232 125.109 21.816C125.901 20.4 127.005 19.308 128.421 18.54C129.861 17.772 131.553 17.388 133.497 17.388C135.441 17.388 137.133 17.772 138.573 18.54C140.013 19.308 141.117 20.4 141.885 21.816C142.677 23.232 143.073 24.912 143.073 26.856C143.073 28.824 142.677 30.516 141.885 31.932C141.117 33.348 140.013 34.452 138.573 35.244C137.133 36.012 135.441 36.396 133.497 36.396ZM133.497 32.292C134.745 32.292 135.729 31.848 136.449 30.96C137.193 30.072 137.565 28.704 137.565 26.856C137.565 25.008 137.193 23.652 136.449 22.788C135.729 21.924 134.745 21.492 133.497 21.492C132.249 21.492 131.253 21.924 130.509 22.788C129.789 23.652 129.429 25.008 129.429 26.856C129.429 28.704 129.789 30.072 130.509 30.96C131.253 31.848 132.249 32.292 133.497 32.292ZM146.584 36V22.5C146.584 21.732 146.56 20.952 146.512 20.16C146.464 19.344 146.392 18.54 146.296 17.748H151.516L151.912 21.132H151.48C152.08 19.932 152.932 19.008 154.036 18.36C155.14 17.712 156.424 17.388 157.888 17.388C160.024 17.388 161.62 18.012 162.676 19.26C163.756 20.484 164.296 22.392 164.296 24.984V36H158.86V25.236C158.86 23.916 158.62 22.98 158.14 22.428C157.66 21.876 156.94 21.6 155.98 21.6C154.78 21.6 153.82 21.984 153.1 22.752C152.38 23.496 152.02 24.504 152.02 25.776V36H146.584ZM168.662 36V22.5C168.662 21.732 168.638 20.952 168.59 20.16C168.542 19.344 168.47 18.54 168.374 17.748H173.594L173.99 21.132H173.558C174.158 19.932 175.01 19.008 176.114 18.36C177.218 17.712 178.502 17.388 179.966 17.388C182.102 17.388 183.698 18.012 184.754 19.26C185.834 20.484 186.374 22.392 186.374 24.984V36H180.938V25.236C180.938 23.916 180.698 22.98 180.218 22.428C179.738 21.876 179.018 21.6 178.058 21.6C176.858 21.6 175.898 21.984 175.178 22.752C174.458 23.496 174.098 24.504 174.098 25.776V36H168.662ZM199.92 36.396C196.752 36.396 194.28 35.544 192.504 33.84C190.728 32.136 189.84 29.82 189.84 26.892C189.84 24.996 190.212 23.34 190.956 21.924C191.724 20.508 192.78 19.404 194.124 18.612C195.492 17.796 197.088 17.388 198.912 17.388C200.712 17.388 202.212 17.772 203.412 18.54C204.636 19.308 205.548 20.388 206.148 21.78C206.772 23.148 207.084 24.744 207.084 26.568V27.828H194.304V25.128H203.124L202.512 25.632C202.512 24.12 202.2 22.98 201.576 22.212C200.976 21.42 200.1 21.024 198.948 21.024C197.676 21.024 196.692 21.492 195.996 22.428C195.324 23.364 194.988 24.708 194.988 26.46V27.036C194.988 28.812 195.42 30.132 196.284 30.996C197.172 31.86 198.444 32.292 200.1 32.292C201.084 32.292 202.008 32.172 202.872 31.932C203.76 31.668 204.6 31.26 205.392 30.708L206.904 34.308C205.992 34.98 204.936 35.496 203.736 35.856C202.56 36.216 201.288 36.396 199.92 36.396ZM219.317 36.396C217.373 36.396 215.669 36.012 214.205 35.244C212.741 34.476 211.613 33.372 210.821 31.932C210.029 30.492 209.633 28.788 209.633 26.82C209.633 24.828 210.029 23.136 210.821 21.744C211.637 20.328 212.765 19.248 214.205 18.504C215.669 17.76 217.373 17.388 219.317 17.388C220.541 17.388 221.729 17.568 222.881 17.928C224.057 18.288 225.017 18.792 225.761 19.44L224.177 23.184C223.577 22.632 222.881 22.224 222.089 21.96C221.321 21.672 220.577 21.528 219.857 21.528C218.393 21.528 217.253 21.984 216.437 22.896C215.621 23.808 215.213 25.128 215.213 26.856C215.213 28.584 215.621 29.904 216.437 30.816C217.253 31.728 218.393 32.184 219.857 32.184C220.553 32.184 221.285 32.052 222.053 31.788C222.845 31.524 223.553 31.128 224.177 30.6L225.761 34.308C224.993 34.956 224.021 35.472 222.845 35.856C221.693 36.216 220.517 36.396 219.317 36.396ZM237.487 36.396C235.111 36.396 233.323 35.808 232.123 34.632C230.923 33.432 230.323 31.644 230.323 29.268V21.816H226.867V17.748H230.323V13.284L235.759 11.952V17.748H240.439V21.816H235.759V28.98C235.759 30.132 235.999 30.924 236.479 31.356C236.959 31.788 237.571 32.004 238.315 32.004C238.771 32.004 239.143 31.98 239.431 31.932C239.743 31.86 240.067 31.764 240.403 31.644V35.856C239.947 36.048 239.467 36.18 238.963 36.252C238.459 36.348 237.967 36.396 237.487 36.396ZM249.96 36.396C248.328 36.396 246.84 36.216 245.496 35.856C244.152 35.496 243.012 34.992 242.076 34.344L243.48 30.744C244.416 31.32 245.448 31.776 246.576 32.112C247.728 32.448 248.868 32.616 249.996 32.616C251.052 32.616 251.832 32.448 252.336 32.112C252.84 31.776 253.092 31.32 253.092 30.744C253.092 30.264 252.924 29.892 252.588 29.628C252.276 29.364 251.784 29.172 251.112 29.052L247.404 28.368C245.844 28.056 244.656 27.48 243.84 26.64C243.024 25.8 242.616 24.708 242.616 23.364C242.616 22.188 242.928 21.156 243.552 20.268C244.2 19.356 245.124 18.648 246.324 18.144C247.524 17.64 248.928 17.388 250.536 17.388C251.904 17.388 253.2 17.556 254.424 17.892C255.648 18.228 256.692 18.744 257.556 19.44L256.08 22.932C255.336 22.38 254.472 21.936 253.488 21.6C252.528 21.264 251.604 21.096 250.716 21.096C249.564 21.096 248.736 21.288 248.232 21.672C247.728 22.032 247.476 22.5 247.476 23.076C247.476 23.508 247.62 23.868 247.908 24.156C248.22 24.444 248.688 24.66 249.312 24.804L253.056 25.488C254.664 25.776 255.888 26.316 256.728 27.108C257.568 27.9 257.988 28.992 257.988 30.384C257.988 31.656 257.652 32.736 256.98 33.624C256.308 34.512 255.36 35.196 254.136 35.676C252.936 36.156 251.544 36.396 249.96 36.396ZM7.38 81L0.036 62.748H5.616L10.44 75.888H9.504L14.364 62.748H17.964L22.788 75.888H22.032L26.784 62.748H32.04L24.732 81H20.052L14.868 67.536H17.064L12.06 81H7.38ZM34.2945 81V62.748H39.7305V81H34.2945ZM34.0785 59.76V54.684H39.9105V59.76H34.0785ZM52.7054 81.396C50.3294 81.396 48.5414 80.808 47.3414 79.632C46.1414 78.432 45.5414 76.644 45.5414 74.268V66.816H42.0854V62.748H45.5414V58.284L50.9774 56.952V62.748H55.6574V66.816H50.9774V73.98C50.9774 75.132 51.2174 75.924 51.6974 76.356C52.1774 76.788 52.7894 77.004 53.5334 77.004C53.9894 77.004 54.3614 76.98 54.6494 76.932C54.9614 76.86 55.2854 76.764 55.6214 76.644V80.856C55.1654 81.048 54.6854 81.18 54.1814 81.252C53.6774 81.348 53.1854 81.396 52.7054 81.396ZM58.4468 81V54.504H63.8828V66.168H63.3428C63.9188 64.944 64.7708 64.008 65.8988 63.36C67.0268 62.712 68.3228 62.388 69.7868 62.388C71.9228 62.388 73.5188 63.012 74.5748 64.26C75.6308 65.484 76.1588 67.368 76.1588 69.912V81H70.7228V70.164C70.7228 68.892 70.4828 67.98 70.0028 67.428C69.5468 66.876 68.8268 66.6 67.8428 66.6C66.6428 66.6 65.6828 66.972 64.9628 67.716C64.2428 68.46 63.8828 69.456 63.8828 70.704V81H58.4468ZM96.9131 81V60.192H88.8491V55.62H110.593V60.192H102.529V81H96.9131ZM110.407 81V67.572C110.407 66.78 110.383 65.976 110.335 65.16C110.311 64.344 110.251 63.54 110.155 62.748H115.375L115.987 68.076H115.159C115.399 66.78 115.783 65.712 116.311 64.872C116.863 64.032 117.535 63.408 118.327 63C119.143 62.592 120.067 62.388 121.099 62.388C121.555 62.388 121.915 62.412 122.179 62.46C122.443 62.484 122.707 62.544 122.971 62.64L122.935 67.428C122.431 67.212 121.999 67.08 121.639 67.032C121.303 66.96 120.871 66.924 120.343 66.924C119.335 66.924 118.495 67.116 117.823 67.5C117.175 67.884 116.683 68.448 116.347 69.192C116.035 69.936 115.879 70.836 115.879 71.892V81H110.407ZM132.16 81.396C130.576 81.396 129.184 81.012 127.984 80.244C126.784 79.476 125.848 78.384 125.176 76.968C124.504 75.552 124.168 73.848 124.168 71.856C124.168 69.888 124.504 68.196 125.176 66.78C125.848 65.364 126.784 64.284 127.984 63.54C129.184 62.772 130.576 62.388 132.16 62.388C133.624 62.388 134.932 62.748 136.084 63.468C137.26 64.164 138.028 65.112 138.388 66.312H137.992L138.424 62.748H143.644C143.572 63.54 143.5 64.344 143.428 65.16C143.38 65.952 143.356 66.732 143.356 67.5V81H137.956L137.92 77.58H138.352C137.968 78.732 137.2 79.656 136.048 80.352C134.896 81.048 133.6 81.396 132.16 81.396ZM133.816 77.292C135.064 77.292 136.072 76.848 136.84 75.96C137.608 75.072 137.992 73.704 137.992 71.856C137.992 70.008 137.608 68.652 136.84 67.788C136.072 66.924 135.064 66.492 133.816 66.492C132.568 66.492 131.56 66.924 130.792 67.788C130.024 68.652 129.64 70.008 129.64 71.856C129.64 73.704 130.012 75.072 130.756 75.96C131.524 76.848 132.544 77.292 133.816 77.292ZM152.93 81L145.046 62.748H150.77L155.99 75.996H154.802L160.202 62.748H165.566L157.61 81H152.93ZM176.225 81.396C173.057 81.396 170.585 80.544 168.809 78.84C167.033 77.136 166.145 74.82 166.145 71.892C166.145 69.996 166.517 68.34 167.261 66.924C168.029 65.508 169.085 64.404 170.429 63.612C171.797 62.796 173.393 62.388 175.217 62.388C177.017 62.388 178.517 62.772 179.717 63.54C180.941 64.308 181.853 65.388 182.453 66.78C183.077 68.148 183.389 69.744 183.389 71.568V72.828H170.609V70.128H179.429L178.817 70.632C178.817 69.12 178.505 67.98 177.881 67.212C177.281 66.42 176.405 66.024 175.253 66.024C173.981 66.024 172.997 66.492 172.301 67.428C171.629 68.364 171.293 69.708 171.293 71.46V72.036C171.293 73.812 171.725 75.132 172.589 75.996C173.477 76.86 174.749 77.292 176.405 77.292C177.389 77.292 178.313 77.172 179.177 76.932C180.065 76.668 180.905 76.26 181.697 75.708L183.209 79.308C182.297 79.98 181.241 80.496 180.041 80.856C178.865 81.216 177.593 81.396 176.225 81.396ZM186.837 81V54.504H192.273V81H186.837ZM196.716 81V54.504H202.152V81H196.716ZM215.235 81.396C213.291 81.396 211.599 81.012 210.159 80.244C208.743 79.452 207.639 78.348 206.847 76.932C206.079 75.516 205.695 73.824 205.695 71.856C205.695 69.912 206.079 68.232 206.847 66.816C207.639 65.4 208.743 64.308 210.159 63.54C211.599 62.772 213.291 62.388 215.235 62.388C217.179 62.388 218.871 62.772 220.311 63.54C221.751 64.308 222.855 65.4 223.623 66.816C224.415 68.232 224.811 69.912 224.811 71.856C224.811 73.824 224.415 75.516 223.623 76.932C222.855 78.348 221.751 79.452 220.311 80.244C218.871 81.012 217.179 81.396 215.235 81.396ZM215.235 77.292C216.483 77.292 217.467 76.848 218.187 75.96C218.931 75.072 219.303 73.704 219.303 71.856C219.303 70.008 218.931 68.652 218.187 67.788C217.467 66.924 216.483 66.492 215.235 66.492C213.987 66.492 212.991 66.924 212.247 67.788C211.527 68.652 211.167 70.008 211.167 71.856C211.167 73.704 211.527 75.072 212.247 75.96C212.991 76.848 213.987 77.292 215.235 77.292Z" fill="#252525"/>
<path d="M6.384 117V101.376H0.24V100.08H13.992V101.376H7.872V117H6.384ZM19.2362 117.192C18.1002 117.192 17.1162 116.944 16.2842 116.448C15.4682 115.952 14.8362 115.24 14.3882 114.312C13.9402 113.384 13.7162 112.272 13.7162 110.976C13.7162 109.696 13.9402 108.592 14.3882 107.664C14.8362 106.736 15.4682 106.024 16.2842 105.528C17.1162 105.016 18.1002 104.76 19.2362 104.76C20.3562 104.76 21.3242 105.016 22.1402 105.528C22.9722 106.024 23.6122 106.736 24.0602 107.664C24.5242 108.592 24.7562 109.696 24.7562 110.976C24.7562 112.272 24.5242 113.384 24.0602 114.312C23.6122 115.24 22.9722 115.952 22.1402 116.448C21.3242 116.944 20.3562 117.192 19.2362 117.192ZM19.2362 115.944C20.4522 115.944 21.4282 115.52 22.1642 114.672C22.9002 113.824 23.2682 112.592 23.2682 110.976C23.2682 109.36 22.9002 108.128 22.1642 107.28C21.4282 106.432 20.4522 106.008 19.2362 106.008C18.0042 106.008 17.0202 106.432 16.2842 107.28C15.5642 108.128 15.2042 109.36 15.2042 110.976C15.2042 112.592 15.5642 113.824 16.2842 114.672C17.0202 115.52 18.0042 115.944 19.2362 115.944ZM33.5259 122.448L33.1659 121.176C33.9179 121 34.5419 120.784 35.0379 120.528C35.5339 120.288 35.9499 119.968 36.2859 119.568C36.6219 119.168 36.9179 118.672 37.1739 118.08L37.7979 116.64L37.7739 117.288L32.5179 104.976H34.1499L38.7339 116.088H38.1339L42.6699 104.976H44.2539L38.6859 118.152C38.3819 118.888 38.0459 119.496 37.6779 119.976C37.3259 120.472 36.9419 120.88 36.5259 121.2C36.1099 121.536 35.6539 121.8 35.1579 121.992C34.6619 122.184 34.1179 122.336 33.5259 122.448ZM51.2987 117.192C50.1627 117.192 49.1787 116.944 48.3467 116.448C47.5307 115.952 46.8987 115.24 46.4507 114.312C46.0027 113.384 45.7787 112.272 45.7787 110.976C45.7787 109.696 46.0027 108.592 46.4507 107.664C46.8987 106.736 47.5307 106.024 48.3467 105.528C49.1787 105.016 50.1627 104.76 51.2987 104.76C52.4187 104.76 53.3867 105.016 54.2027 105.528C55.0347 106.024 55.6747 106.736 56.1227 107.664C56.5867 108.592 56.8187 109.696 56.8187 110.976C56.8187 112.272 56.5867 113.384 56.1227 114.312C55.6747 115.24 55.0347 115.952 54.2027 116.448C53.3867 116.944 52.4187 117.192 51.2987 117.192ZM51.2987 115.944C52.5147 115.944 53.4907 115.52 54.2267 114.672C54.9627 113.824 55.3307 112.592 55.3307 110.976C55.3307 109.36 54.9627 108.128 54.2267 107.28C53.4907 106.432 52.5147 106.008 51.2987 106.008C50.0667 106.008 49.0827 106.432 48.3467 107.28C47.6267 108.128 47.2667 109.36 47.2667 110.976C47.2667 112.592 47.6267 113.824 48.3467 114.672C49.0827 115.52 50.0667 115.944 51.2987 115.944ZM64.2473 117.192C62.8393 117.192 61.7673 116.816 61.0312 116.064C60.3113 115.296 59.9513 114.12 59.9513 112.536V104.976H61.4153V112.44C61.4153 113.656 61.6633 114.544 62.1593 115.104C62.6553 115.664 63.4153 115.944 64.4393 115.944C65.5753 115.944 66.4873 115.576 67.1753 114.84C67.8793 114.088 68.2313 113.096 68.2313 111.864V104.976H69.6953V117H68.2553V114.168H68.5673C68.2313 115.144 67.6793 115.896 66.9113 116.424C66.1593 116.936 65.2713 117.192 64.2473 117.192ZM73.6633 117V107.784C73.6633 107.32 73.6473 106.856 73.6153 106.392C73.5993 105.912 73.5593 105.44 73.4953 104.976H74.9353L75.1273 107.736L74.8393 107.76C74.9993 107.088 75.2873 106.536 75.7033 106.104C76.1193 105.656 76.5993 105.32 77.1433 105.096C77.6873 104.872 78.2473 104.76 78.8233 104.76C79.0313 104.76 79.2233 104.776 79.3993 104.808C79.5913 104.824 79.7673 104.856 79.9273 104.904L79.8793 106.224C79.6873 106.16 79.4953 106.12 79.3033 106.104C79.1113 106.088 78.9033 106.08 78.6793 106.08C77.9593 106.08 77.3273 106.256 76.7833 106.608C76.2553 106.96 75.8473 107.408 75.5593 107.952C75.2713 108.496 75.1273 109.048 75.1273 109.608V117H73.6633ZM92.7077 117.192C91.6357 117.192 90.6997 116.944 89.8997 116.448C89.0997 115.952 88.4837 115.24 88.0517 114.312C87.6197 113.384 87.4037 112.272 87.4037 110.976C87.4037 109.68 87.6197 108.576 88.0517 107.664C88.4837 106.736 89.0997 106.024 89.8997 105.528C90.6997 105.016 91.6357 104.76 92.7077 104.76C93.8117 104.76 94.7637 105.048 95.5637 105.624C96.3797 106.184 96.9237 106.96 97.1957 107.952H96.9077V99.336H98.3717V117H96.9317V113.976H97.1957C96.9237 114.984 96.3797 115.776 95.5637 116.352C94.7637 116.912 93.8117 117.192 92.7077 117.192ZM92.8997 115.944C94.1157 115.944 95.0917 115.52 95.8277 114.672C96.5797 113.824 96.9557 112.592 96.9557 110.976C96.9557 109.36 96.5797 108.128 95.8277 107.28C95.0917 106.432 94.1157 106.008 92.8997 106.008C91.6837 106.008 90.7077 106.432 89.9717 107.28C89.2517 108.128 88.8917 109.36 88.8917 110.976C88.8917 112.592 89.2517 113.824 89.9717 114.672C90.7077 115.52 91.6837 115.944 92.8997 115.944ZM102.327 117V107.784C102.327 107.32 102.311 106.856 102.279 106.392C102.263 105.912 102.223 105.44 102.159 104.976H103.599L103.791 107.736L103.503 107.76C103.663 107.088 103.951 106.536 104.367 106.104C104.783 105.656 105.263 105.32 105.807 105.096C106.351 104.872 106.911 104.76 107.487 104.76C107.695 104.76 107.887 104.776 108.063 104.808C108.255 104.824 108.431 104.856 108.591 104.904L108.543 106.224C108.351 106.16 108.159 106.12 107.967 106.104C107.775 106.088 107.567 106.08 107.343 106.08C106.623 106.08 105.991 106.256 105.447 106.608C104.919 106.96 104.511 107.408 104.223 107.952C103.935 108.496 103.791 109.048 103.791 109.608V117H102.327ZM115.738 117.192C113.914 117.192 112.466 116.648 111.394 115.56C110.338 114.472 109.81 112.96 109.81 111.024C109.81 109.744 110.042 108.64 110.506 107.712C110.986 106.784 111.65 106.064 112.498 105.552C113.346 105.024 114.33 104.76 115.45 104.76C116.522 104.76 117.426 104.992 118.162 105.456C118.898 105.904 119.466 106.552 119.866 107.4C120.266 108.232 120.466 109.224 120.466 110.376V111.048H110.866V109.992H119.554L119.146 110.304C119.146 108.944 118.834 107.88 118.21 107.112C117.586 106.328 116.658 105.936 115.426 105.936C114.114 105.936 113.09 106.392 112.354 107.304C111.618 108.2 111.25 109.392 111.25 110.88V111.048C111.25 112.648 111.642 113.864 112.426 114.696C113.226 115.528 114.338 115.944 115.762 115.944C116.498 115.944 117.186 115.832 117.826 115.608C118.466 115.384 119.082 115 119.674 114.456L120.274 115.536C119.762 116.064 119.098 116.472 118.282 116.76C117.466 117.048 116.618 117.192 115.738 117.192ZM128.169 117.192C127.081 117.192 126.137 116.944 125.337 116.448C124.537 115.952 123.921 115.24 123.489 114.312C123.057 113.384 122.841 112.272 122.841 110.976C122.841 109.68 123.057 108.576 123.489 107.664C123.937 106.736 124.561 106.024 125.361 105.528C126.161 105.016 127.097 104.76 128.169 104.76C129.273 104.76 130.225 105.048 131.025 105.624C131.841 106.2 132.377 106.984 132.633 107.976H132.345L132.585 104.976H134.001C133.953 105.44 133.905 105.896 133.857 106.344C133.825 106.792 133.809 107.232 133.809 107.664V117H132.345V114H132.609C132.353 114.992 131.817 115.776 131.001 116.352C130.201 116.912 129.257 117.192 128.169 117.192ZM128.361 115.944C129.593 115.944 130.569 115.52 131.289 114.672C132.009 113.824 132.369 112.592 132.369 110.976C132.369 109.36 132.009 108.128 131.289 107.28C130.569 106.432 129.593 106.008 128.361 106.008C127.129 106.008 126.145 106.432 125.409 107.28C124.689 108.128 124.329 109.36 124.329 110.976C124.329 112.592 124.689 113.824 125.409 114.672C126.145 115.52 127.129 115.944 128.361 115.944ZM137.789 117V107.664C137.789 107.232 137.773 106.792 137.741 106.344C137.709 105.896 137.661 105.44 137.597 104.976H139.037L139.253 107.736H138.965C139.269 106.792 139.773 106.064 140.477 105.552C141.181 105.024 142.037 104.76 143.045 104.76C144.069 104.76 144.901 105.008 145.541 105.504C146.181 106 146.605 106.768 146.813 107.808H146.453C146.741 106.88 147.269 106.144 148.037 105.6C148.805 105.04 149.709 104.76 150.749 104.76C152.061 104.76 153.053 105.136 153.725 105.888C154.397 106.64 154.733 107.816 154.733 109.416V117H153.269V109.512C153.269 108.296 153.053 107.416 152.621 106.872C152.189 106.312 151.485 106.032 150.509 106.032C149.421 106.032 148.557 106.4 147.917 107.136C147.293 107.872 146.981 108.864 146.981 110.112V117H145.517V109.512C145.517 108.296 145.301 107.416 144.869 106.872C144.437 106.312 143.741 106.032 142.781 106.032C141.693 106.032 140.829 106.4 140.189 107.136C139.565 107.872 139.253 108.864 139.253 110.112V117H137.789ZM168.653 117.192C167.581 117.192 166.757 116.872 166.181 116.232C165.621 115.592 165.341 114.608 165.341 113.28V106.152H162.941V104.976H165.341V101.616L166.805 101.136V104.976H170.357V106.152H166.805V113.064C166.805 114.072 166.965 114.8 167.285 115.248C167.605 115.696 168.117 115.92 168.821 115.92C169.141 115.92 169.421 115.888 169.661 115.824C169.917 115.76 170.133 115.688 170.309 115.608V116.904C170.117 116.984 169.869 117.048 169.565 117.096C169.261 117.16 168.957 117.192 168.653 117.192ZM172.827 117V107.784C172.827 107.32 172.811 106.856 172.779 106.392C172.763 105.912 172.723 105.44 172.659 104.976H174.099L174.291 107.736L174.003 107.76C174.163 107.088 174.451 106.536 174.867 106.104C175.283 105.656 175.763 105.32 176.307 105.096C176.851 104.872 177.411 104.76 177.987 104.76C178.195 104.76 178.387 104.776 178.563 104.808C178.755 104.824 178.931 104.856 179.091 104.904L179.043 106.224C178.851 106.16 178.659 106.12 178.467 106.104C178.275 106.088 178.067 106.08 177.843 106.08C177.123 106.08 176.491 106.256 175.947 106.608C175.419 106.96 175.011 107.408 174.723 107.952C174.435 108.496 174.291 109.048 174.291 109.608V117H172.827ZM181.219 117V104.976H182.683V117H181.219ZM180.979 102.024V100.2H182.947V102.024H180.979ZM186.68 122.184V107.664C186.68 107.232 186.664 106.792 186.632 106.344C186.6 105.896 186.552 105.44 186.488 104.976H187.928L188.168 107.976H187.88C188.152 106.984 188.68 106.2 189.464 105.624C190.248 105.048 191.2 104.76 192.32 104.76C193.408 104.76 194.344 105.016 195.128 105.528C195.928 106.024 196.552 106.736 197 107.664C197.448 108.576 197.672 109.68 197.672 110.976C197.672 112.272 197.448 113.384 197 114.312C196.568 115.24 195.952 115.952 195.152 116.448C194.352 116.944 193.408 117.192 192.32 117.192C191.216 117.192 190.264 116.912 189.464 116.352C188.68 115.776 188.152 114.992 187.88 114H188.144V122.184H186.68ZM192.128 115.944C193.36 115.944 194.344 115.52 195.08 114.672C195.816 113.824 196.184 112.592 196.184 110.976C196.184 109.36 195.816 108.128 195.08 107.28C194.344 106.432 193.36 106.008 192.128 106.008C190.912 106.008 189.936 106.432 189.2 107.28C188.48 108.128 188.12 109.36 188.12 110.976C188.12 112.592 188.48 113.824 189.2 114.672C189.936 115.52 190.912 115.944 192.128 115.944Z" fill="#252525"/>
</svg>
