<svg width="281" height="123" viewBox="0 0 281 123" fill="none" xmlns="http://www.w3.org/2000/svg">
<path d="M2.592 36V10.62H14.112C16.968 10.62 19.176 11.304 20.736 12.672C22.296 14.016 23.076 15.9 23.076 18.324C23.076 19.908 22.716 21.276 21.996 22.428C21.3 23.556 20.292 24.432 18.972 25.056C17.676 25.656 16.116 25.956 14.292 25.956L14.724 25.164H16.2C17.232 25.164 18.144 25.44 18.936 25.992C19.752 26.544 20.424 27.348 20.952 28.404L24.732 36H18.54L14.616 27.828C14.328 27.132 13.872 26.676 13.248 26.46C12.648 26.22 11.952 26.1 11.16 26.1H8.208V36H2.592ZM8.208 22.068H13.14C14.604 22.068 15.72 21.768 16.488 21.168C17.256 20.568 17.64 19.68 17.64 18.504C17.64 17.328 17.256 16.452 16.488 15.876C15.72 15.276 14.604 14.976 13.14 14.976H8.208V22.068ZM36.4081 36.396C33.2401 36.396 30.7681 35.544 28.9921 33.84C27.2161 32.136 26.3281 29.82 26.3281 26.892C26.3281 24.996 26.7001 23.34 27.4441 21.924C28.2121 20.508 29.2681 19.404 30.6121 18.612C31.9801 17.796 33.5761 17.388 35.4001 17.388C37.2001 17.388 38.7001 17.772 39.9001 18.54C41.1241 19.308 42.0361 20.388 42.6361 21.78C43.2601 23.148 43.5721 24.744 43.5721 26.568V27.828H30.7921V25.128H39.6121L39.0001 25.632C39.0001 24.12 38.6881 22.98 38.0641 22.212C37.4641 21.42 36.5881 21.024 35.4361 21.024C34.1641 21.024 33.1801 21.492 32.4841 22.428C31.8121 23.364 31.4761 24.708 31.4761 26.46V27.036C31.4761 28.812 31.9081 30.132 32.7721 30.996C33.6601 31.86 34.9321 32.292 36.5881 32.292C37.5721 32.292 38.4961 32.172 39.3601 31.932C40.2481 31.668 41.0881 31.26 41.8801 30.708L43.3921 34.308C42.4801 34.98 41.4241 35.496 40.2241 35.856C39.0481 36.216 37.7761 36.396 36.4081 36.396ZM54.1131 36.396C52.5291 36.396 51.1371 36.012 49.9371 35.244C48.7371 34.476 47.8011 33.384 47.1291 31.968C46.4571 30.552 46.1211 28.848 46.1211 26.856C46.1211 24.888 46.4571 23.196 47.1291 21.78C47.8011 20.364 48.7371 19.284 49.9371 18.54C51.1371 17.772 52.5291 17.388 54.1131 17.388C55.5771 17.388 56.8851 17.748 58.0371 18.468C59.2131 19.164 59.9811 20.112 60.3411 21.312H59.9451L60.3771 17.748H65.5971C65.5251 18.54 65.4531 19.344 65.3811 20.16C65.3331 20.952 65.3091 21.732 65.3091 22.5V36H59.9091L59.8731 32.58H60.3051C59.9211 33.732 59.1531 34.656 58.0011 35.352C56.8491 36.048 55.5531 36.396 54.1131 36.396ZM55.7691 32.292C57.0171 32.292 58.0251 31.848 58.7931 30.96C59.5611 30.072 59.9451 28.704 59.9451 26.856C59.9451 25.008 59.5611 23.652 58.7931 22.788C58.0251 21.924 57.0171 21.492 55.7691 21.492C54.5211 21.492 53.5131 21.924 52.7451 22.788C51.9771 23.652 51.5931 25.008 51.5931 26.856C51.5931 28.704 51.9651 30.072 52.7091 30.96C53.4771 31.848 54.4971 32.292 55.7691 32.292ZM78.5512 36.396C76.6072 36.396 74.9032 36.012 73.4392 35.244C71.9752 34.476 70.8472 33.372 70.0552 31.932C69.2632 30.492 68.8672 28.788 68.8672 26.82C68.8672 24.828 69.2632 23.136 70.0552 21.744C70.8712 20.328 71.9992 19.248 73.4392 18.504C74.9032 17.76 76.6072 17.388 78.5512 17.388C79.7752 17.388 80.9632 17.568 82.1152 17.928C83.2912 18.288 84.2512 18.792 84.9952 19.44L83.4112 23.184C82.8112 22.632 82.1152 22.224 81.3232 21.96C80.5552 21.672 79.8112 21.528 79.0912 21.528C77.6272 21.528 76.4872 21.984 75.6712 22.896C74.8552 23.808 74.4472 25.128 74.4472 26.856C74.4472 28.584 74.8552 29.904 75.6712 30.816C76.4872 31.728 77.6272 32.184 79.0912 32.184C79.7872 32.184 80.5192 32.052 81.2872 31.788C82.0792 31.524 82.7872 31.128 83.4112 30.6L84.9952 34.308C84.2272 34.956 83.2552 35.472 82.0792 35.856C80.9272 36.216 79.7512 36.396 78.5512 36.396ZM88.0836 36V9.504H93.5196V21.168H92.9796C93.5556 19.944 94.4076 19.008 95.5356 18.36C96.6636 17.712 97.9596 17.388 99.4236 17.388C101.56 17.388 103.156 18.012 104.212 19.26C105.268 20.484 105.796 22.368 105.796 24.912V36H100.36V25.164C100.36 23.892 100.12 22.98 99.6396 22.428C99.1836 21.876 98.4636 21.6 97.4796 21.6C96.2796 21.6 95.3196 21.972 94.5996 22.716C93.8796 23.46 93.5196 24.456 93.5196 25.704V36H88.0836ZM128.854 36.396C126.478 36.396 124.69 35.808 123.49 34.632C122.29 33.432 121.69 31.644 121.69 29.268V21.816H118.234V17.748H121.69V13.284L127.126 11.952V17.748H131.806V21.816H127.126V28.98C127.126 30.132 127.366 30.924 127.846 31.356C128.326 31.788 128.938 32.004 129.682 32.004C130.138 32.004 130.51 31.98 130.798 31.932C131.11 31.86 131.434 31.764 131.77 31.644V35.856C131.314 36.048 130.834 36.18 130.33 36.252C129.826 36.348 129.334 36.396 128.854 36.396ZM134.595 36V9.504H140.031V21.168H139.491C140.067 19.944 140.919 19.008 142.047 18.36C143.175 17.712 144.471 17.388 145.935 17.388C148.071 17.388 149.667 18.012 150.723 19.26C151.779 20.484 152.307 22.368 152.307 24.912V36H146.871V25.164C146.871 23.892 146.631 22.98 146.151 22.428C145.695 21.876 144.975 21.6 143.991 21.6C142.791 21.6 141.831 21.972 141.111 22.716C140.391 23.46 140.031 24.456 140.031 25.704V36H134.595ZM165.853 36.396C162.685 36.396 160.213 35.544 158.437 33.84C156.661 32.136 155.773 29.82 155.773 26.892C155.773 24.996 156.145 23.34 156.889 21.924C157.657 20.508 158.713 19.404 160.057 18.612C161.425 17.796 163.021 17.388 164.845 17.388C166.645 17.388 168.145 17.772 169.345 18.54C170.569 19.308 171.481 20.388 172.081 21.78C172.705 23.148 173.017 24.744 173.017 26.568V27.828H160.237V25.128H169.057L168.445 25.632C168.445 24.12 168.133 22.98 167.509 22.212C166.909 21.42 166.033 21.024 164.881 21.024C163.609 21.024 162.625 21.492 161.929 22.428C161.257 23.364 160.921 24.708 160.921 26.46V27.036C160.921 28.812 161.353 30.132 162.217 30.996C163.105 31.86 164.377 32.292 166.033 32.292C167.017 32.292 167.941 32.172 168.805 31.932C169.693 31.668 170.533 31.26 171.325 30.708L172.837 34.308C171.925 34.98 170.869 35.496 169.669 35.856C168.493 36.216 167.221 36.396 165.853 36.396ZM8.856 81.396C6.576 81.396 4.884 80.772 3.78 79.524C2.676 78.252 2.124 76.332 2.124 73.764V62.748H7.56V73.764C7.56 74.916 7.788 75.768 8.244 76.32C8.724 76.872 9.456 77.148 10.44 77.148C11.52 77.148 12.408 76.776 13.104 76.032C13.824 75.264 14.184 74.244 14.184 72.972V62.748H19.62V81H14.328V77.508H14.832C14.28 78.732 13.488 79.692 12.456 80.388C11.448 81.06 10.248 81.396 8.856 81.396ZM24.0992 81V67.5C24.0992 66.732 24.0752 65.952 24.0272 65.16C23.9792 64.344 23.9072 63.54 23.8112 62.748H29.0312L29.4272 66.132H28.9952C29.5952 64.932 30.4472 64.008 31.5512 63.36C32.6552 62.712 33.9392 62.388 35.4032 62.388C37.5392 62.388 39.1352 63.012 40.1912 64.26C41.2712 65.484 41.8112 67.392 41.8112 69.984V81H36.3752V70.236C36.3752 68.916 36.1352 67.98 35.6552 67.428C35.1752 66.876 34.4552 66.6 33.4952 66.6C32.2952 66.6 31.3352 66.984 30.6152 67.752C29.8952 68.496 29.5352 69.504 29.5352 70.776V81H24.0992ZM46.1773 81V54.504H51.6133V70.344H51.6853L58.4533 62.748H64.9333L56.1853 72.468V70.488L65.4013 81H58.7413L51.6853 73.08H51.6133V81H46.1773ZM66.8492 81V67.5C66.8492 66.732 66.8252 65.952 66.7772 65.16C66.7292 64.344 66.6572 63.54 66.5612 62.748H71.7812L72.1772 66.132H71.7452C72.3452 64.932 73.1972 64.008 74.3012 63.36C75.4052 62.712 76.6892 62.388 78.1532 62.388C80.2892 62.388 81.8852 63.012 82.9412 64.26C84.0212 65.484 84.5612 67.392 84.5612 69.984V81H79.1252V70.236C79.1252 68.916 78.8852 67.98 78.4052 67.428C77.9252 66.876 77.2052 66.6 76.2452 66.6C75.0452 66.6 74.0852 66.984 73.3652 67.752C72.6452 68.496 72.2852 69.504 72.2852 70.776V81H66.8492ZM97.5673 81.396C95.6233 81.396 93.9313 81.012 92.4913 80.244C91.0753 79.452 89.9713 78.348 89.1793 76.932C88.4113 75.516 88.0273 73.824 88.0273 71.856C88.0273 69.912 88.4113 68.232 89.1793 66.816C89.9713 65.4 91.0753 64.308 92.4913 63.54C93.9313 62.772 95.6233 62.388 97.5673 62.388C99.5113 62.388 101.203 62.772 102.643 63.54C104.083 64.308 105.187 65.4 105.955 66.816C106.747 68.232 107.143 69.912 107.143 71.856C107.143 73.824 106.747 75.516 105.955 76.932C105.187 78.348 104.083 79.452 102.643 80.244C101.203 81.012 99.5113 81.396 97.5673 81.396ZM97.5673 77.292C98.8153 77.292 99.7993 76.848 100.519 75.96C101.263 75.072 101.635 73.704 101.635 71.856C101.635 70.008 101.263 68.652 100.519 67.788C99.7993 66.924 98.8153 66.492 97.5673 66.492C96.3193 66.492 95.3233 66.924 94.5793 67.788C93.8593 68.652 93.4993 70.008 93.4993 71.856C93.4993 73.704 93.8593 75.072 94.5793 75.96C95.3233 76.848 96.3193 77.292 97.5673 77.292ZM115.38 81L108.036 62.748H113.616L118.44 75.888H117.504L122.364 62.748H125.964L130.788 75.888H130.032L134.784 62.748H140.04L132.732 81H128.052L122.868 67.536H125.064L120.06 81H115.38ZM142.295 81V67.5C142.295 66.732 142.271 65.952 142.223 65.16C142.175 64.344 142.103 63.54 142.007 62.748H147.227L147.623 66.132H147.191C147.791 64.932 148.643 64.008 149.747 63.36C150.851 62.712 152.135 62.388 153.599 62.388C155.735 62.388 157.331 63.012 158.387 64.26C159.467 65.484 160.007 67.392 160.007 69.984V81H154.571V70.236C154.571 68.916 154.331 67.98 153.851 67.428C153.371 66.876 152.651 66.6 151.691 66.6C150.491 66.6 149.531 66.984 148.811 67.752C148.091 68.496 147.731 69.504 147.731 70.776V81H142.295ZM181.265 81.396C179.633 81.396 178.145 81.216 176.801 80.856C175.457 80.496 174.317 79.992 173.381 79.344L174.785 75.744C175.721 76.32 176.753 76.776 177.881 77.112C179.033 77.448 180.173 77.616 181.301 77.616C182.357 77.616 183.137 77.448 183.641 77.112C184.145 76.776 184.397 76.32 184.397 75.744C184.397 75.264 184.229 74.892 183.893 74.628C183.581 74.364 183.089 74.172 182.417 74.052L178.709 73.368C177.149 73.056 175.961 72.48 175.145 71.64C174.329 70.8 173.921 69.708 173.921 68.364C173.921 67.188 174.233 66.156 174.857 65.268C175.505 64.356 176.429 63.648 177.629 63.144C178.829 62.64 180.233 62.388 181.841 62.388C183.209 62.388 184.505 62.556 185.729 62.892C186.953 63.228 187.997 63.744 188.861 64.44L187.385 67.932C186.641 67.38 185.777 66.936 184.793 66.6C183.833 66.264 182.909 66.096 182.021 66.096C180.869 66.096 180.041 66.288 179.537 66.672C179.033 67.032 178.781 67.5 178.781 68.076C178.781 68.508 178.925 68.868 179.213 69.156C179.525 69.444 179.993 69.66 180.617 69.804L184.361 70.488C185.969 70.776 187.193 71.316 188.033 72.108C188.873 72.9 189.293 73.992 189.293 75.384C189.293 76.656 188.957 77.736 188.285 78.624C187.613 79.512 186.665 80.196 185.441 80.676C184.241 81.156 182.849 81.396 181.265 81.396ZM192.673 88.776V67.5C192.673 66.732 192.649 65.952 192.601 65.16C192.553 64.344 192.481 63.54 192.385 62.748H197.605L198.037 66.312H197.641C198.001 65.112 198.757 64.164 199.909 63.468C201.061 62.748 202.381 62.388 203.869 62.388C205.453 62.388 206.845 62.772 208.045 63.54C209.245 64.284 210.181 65.364 210.853 66.78C211.549 68.196 211.897 69.888 211.897 71.856C211.897 73.848 211.549 75.552 210.853 76.968C210.181 78.384 209.245 79.476 208.045 80.244C206.845 81.012 205.453 81.396 203.869 81.396C202.405 81.396 201.097 81.048 199.945 80.352C198.817 79.656 198.061 78.732 197.677 77.58H198.109V88.776H192.673ZM202.213 77.292C203.485 77.292 204.505 76.848 205.273 75.96C206.041 75.072 206.425 73.704 206.425 71.856C206.425 70.008 206.041 68.652 205.273 67.788C204.505 66.924 203.485 66.492 202.213 66.492C200.965 66.492 199.945 66.924 199.153 67.788C198.385 68.652 198.001 70.008 198.001 71.856C198.001 73.704 198.385 75.072 199.153 75.96C199.945 76.848 200.965 77.292 202.213 77.292ZM224.06 81.396C222.116 81.396 220.424 81.012 218.984 80.244C217.568 79.452 216.464 78.348 215.672 76.932C214.904 75.516 214.52 73.824 214.52 71.856C214.52 69.912 214.904 68.232 215.672 66.816C216.464 65.4 217.568 64.308 218.984 63.54C220.424 62.772 222.116 62.388 224.06 62.388C226.004 62.388 227.696 62.772 229.136 63.54C230.576 64.308 231.68 65.4 232.448 66.816C233.24 68.232 233.636 69.912 233.636 71.856C233.636 73.824 233.24 75.516 232.448 76.932C231.68 78.348 230.576 79.452 229.136 80.244C227.696 81.012 226.004 81.396 224.06 81.396ZM224.06 77.292C225.308 77.292 226.292 76.848 227.012 75.96C227.756 75.072 228.128 73.704 228.128 71.856C228.128 70.008 227.756 68.652 227.012 67.788C226.292 66.924 225.308 66.492 224.06 66.492C222.812 66.492 221.816 66.924 221.072 67.788C220.352 68.652 219.992 70.008 219.992 71.856C219.992 73.704 220.352 75.072 221.072 75.96C221.816 76.848 222.812 77.292 224.06 77.292ZM245.502 81.396C243.126 81.396 241.338 80.808 240.138 79.632C238.938 78.432 238.338 76.644 238.338 74.268V66.816H234.882V62.748H238.338V58.284L243.774 56.952V62.748H248.454V66.816H243.774V73.98C243.774 75.132 244.014 75.924 244.494 76.356C244.974 76.788 245.586 77.004 246.33 77.004C246.786 77.004 247.158 76.98 247.446 76.932C247.758 76.86 248.082 76.764 248.418 76.644V80.856C247.962 81.048 247.482 81.18 246.978 81.252C246.474 81.348 245.982 81.396 245.502 81.396Z" fill="#252525"/>
<path d="M6.384 117V101.376H0.24V100.08H13.992V101.376H7.872V117H6.384ZM19.2362 117.192C18.1002 117.192 17.1162 116.944 16.2842 116.448C15.4682 115.952 14.8362 115.24 14.3882 114.312C13.9402 113.384 13.7162 112.272 13.7162 110.976C13.7162 109.696 13.9402 108.592 14.3882 107.664C14.8362 106.736 15.4682 106.024 16.2842 105.528C17.1162 105.016 18.1002 104.76 19.2362 104.76C20.3562 104.76 21.3242 105.016 22.1402 105.528C22.9722 106.024 23.6122 106.736 24.0602 107.664C24.5242 108.592 24.7562 109.696 24.7562 110.976C24.7562 112.272 24.5242 113.384 24.0602 114.312C23.6122 115.24 22.9722 115.952 22.1402 116.448C21.3242 116.944 20.3562 117.192 19.2362 117.192ZM19.2362 115.944C20.4522 115.944 21.4282 115.52 22.1642 114.672C22.9002 113.824 23.2682 112.592 23.2682 110.976C23.2682 109.36 22.9002 108.128 22.1642 107.28C21.4282 106.432 20.4522 106.008 19.2362 106.008C18.0042 106.008 17.0202 106.432 16.2842 107.28C15.5642 108.128 15.2042 109.36 15.2042 110.976C15.2042 112.592 15.5642 113.824 16.2842 114.672C17.0202 115.52 18.0042 115.944 19.2362 115.944ZM33.5259 122.448L33.1659 121.176C33.9179 121 34.5419 120.784 35.0379 120.528C35.5339 120.288 35.9499 119.968 36.2859 119.568C36.6219 119.168 36.9179 118.672 37.1739 118.08L37.7979 116.64L37.7739 117.288L32.5179 104.976H34.1499L38.7339 116.088H38.1339L42.6699 104.976H44.2539L38.6859 118.152C38.3819 118.888 38.0459 119.496 37.6779 119.976C37.3259 120.472 36.9419 120.88 36.5259 121.2C36.1099 121.536 35.6539 121.8 35.1579 121.992C34.6619 122.184 34.1179 122.336 33.5259 122.448ZM51.2987 117.192C50.1627 117.192 49.1787 116.944 48.3467 116.448C47.5307 115.952 46.8987 115.24 46.4507 114.312C46.0027 113.384 45.7787 112.272 45.7787 110.976C45.7787 109.696 46.0027 108.592 46.4507 107.664C46.8987 106.736 47.5307 106.024 48.3467 105.528C49.1787 105.016 50.1627 104.76 51.2987 104.76C52.4187 104.76 53.3867 105.016 54.2027 105.528C55.0347 106.024 55.6747 106.736 56.1227 107.664C56.5867 108.592 56.8187 109.696 56.8187 110.976C56.8187 112.272 56.5867 113.384 56.1227 114.312C55.6747 115.24 55.0347 115.952 54.2027 116.448C53.3867 116.944 52.4187 117.192 51.2987 117.192ZM51.2987 115.944C52.5147 115.944 53.4907 115.52 54.2267 114.672C54.9627 113.824 55.3307 112.592 55.3307 110.976C55.3307 109.36 54.9627 108.128 54.2267 107.28C53.4907 106.432 52.5147 106.008 51.2987 106.008C50.0667 106.008 49.0827 106.432 48.3467 107.28C47.6267 108.128 47.2667 109.36 47.2667 110.976C47.2667 112.592 47.6267 113.824 48.3467 114.672C49.0827 115.52 50.0667 115.944 51.2987 115.944ZM64.2473 117.192C62.8393 117.192 61.7673 116.816 61.0312 116.064C60.3113 115.296 59.9513 114.12 59.9513 112.536V104.976H61.4153V112.44C61.4153 113.656 61.6633 114.544 62.1593 115.104C62.6553 115.664 63.4153 115.944 64.4393 115.944C65.5753 115.944 66.4873 115.576 67.1753 114.84C67.8793 114.088 68.2313 113.096 68.2313 111.864V104.976H69.6953V117H68.2553V114.168H68.5673C68.2313 115.144 67.6793 115.896 66.9113 116.424C66.1593 116.936 65.2713 117.192 64.2473 117.192ZM73.6633 117V107.784C73.6633 107.32 73.6473 106.856 73.6153 106.392C73.5993 105.912 73.5593 105.44 73.4953 104.976H74.9353L75.1273 107.736L74.8393 107.76C74.9993 107.088 75.2873 106.536 75.7033 106.104C76.1193 105.656 76.5993 105.32 77.1433 105.096C77.6873 104.872 78.2473 104.76 78.8233 104.76C79.0313 104.76 79.2233 104.776 79.3993 104.808C79.5913 104.824 79.7673 104.856 79.9273 104.904L79.8793 106.224C79.6873 106.16 79.4953 106.12 79.3033 106.104C79.1113 106.088 78.9033 106.08 78.6793 106.08C77.9593 106.08 77.3273 106.256 76.7833 106.608C76.2553 106.96 75.8473 107.408 75.5593 107.952C75.2713 108.496 75.1273 109.048 75.1273 109.608V117H73.6633ZM92.7077 117.192C91.6357 117.192 90.6997 116.944 89.8997 116.448C89.0997 115.952 88.4837 115.24 88.0517 114.312C87.6197 113.384 87.4037 112.272 87.4037 110.976C87.4037 109.68 87.6197 108.576 88.0517 107.664C88.4837 106.736 89.0997 106.024 89.8997 105.528C90.6997 105.016 91.6357 104.76 92.7077 104.76C93.8117 104.76 94.7637 105.048 95.5637 105.624C96.3797 106.184 96.9237 106.96 97.1957 107.952H96.9077V99.336H98.3717V117H96.9317V113.976H97.1957C96.9237 114.984 96.3797 115.776 95.5637 116.352C94.7637 116.912 93.8117 117.192 92.7077 117.192ZM92.8997 115.944C94.1157 115.944 95.0917 115.52 95.8277 114.672C96.5797 113.824 96.9557 112.592 96.9557 110.976C96.9557 109.36 96.5797 108.128 95.8277 107.28C95.0917 106.432 94.1157 106.008 92.8997 106.008C91.6837 106.008 90.7077 106.432 89.9717 107.28C89.2517 108.128 88.8917 109.36 88.8917 110.976C88.8917 112.592 89.2517 113.824 89.9717 114.672C90.7077 115.52 91.6837 115.944 92.8997 115.944ZM107.511 117.192C105.687 117.192 104.239 116.648 103.167 115.56C102.111 114.472 101.583 112.96 101.583 111.024C101.583 109.744 101.815 108.64 102.279 107.712C102.759 106.784 103.423 106.064 104.271 105.552C105.119 105.024 106.103 104.76 107.223 104.76C108.295 104.76 109.199 104.992 109.935 105.456C110.671 105.904 111.239 106.552 111.639 107.4C112.039 108.232 112.239 109.224 112.239 110.376V111.048H102.639V109.992H111.327L110.919 110.304C110.919 108.944 110.607 107.88 109.983 107.112C109.359 106.328 108.431 105.936 107.199 105.936C105.887 105.936 104.863 106.392 104.127 107.304C103.391 108.2 103.023 109.392 103.023 110.88V111.048C103.023 112.648 103.415 113.864 104.199 114.696C104.999 115.528 106.111 115.944 107.535 115.944C108.271 115.944 108.959 115.832 109.599 115.608C110.239 115.384 110.855 115 111.447 114.456L112.047 115.536C111.535 116.064 110.871 116.472 110.055 116.76C109.239 117.048 108.391 117.192 107.511 117.192ZM119.271 117.192C118.343 117.192 117.471 117.056 116.655 116.784C115.855 116.512 115.191 116.136 114.663 115.656L115.239 114.576C115.831 115.056 116.471 115.416 117.159 115.656C117.847 115.88 118.567 115.992 119.319 115.992C120.343 115.992 121.119 115.8 121.647 115.416C122.175 115.032 122.439 114.512 122.439 113.856C122.439 113.344 122.271 112.928 121.935 112.608C121.599 112.288 121.039 112.048 120.255 111.888L118.095 111.432C117.071 111.192 116.303 110.808 115.791 110.28C115.295 109.752 115.047 109.088 115.047 108.288C115.047 107.6 115.223 106.992 115.575 106.464C115.943 105.936 116.463 105.52 117.135 105.216C117.807 104.912 118.599 104.76 119.511 104.76C120.375 104.76 121.167 104.904 121.887 105.192C122.623 105.464 123.223 105.856 123.687 106.368L123.063 107.424C122.583 106.944 122.039 106.584 121.431 106.344C120.839 106.104 120.207 105.984 119.535 105.984C118.543 105.984 117.791 106.192 117.279 106.608C116.767 107.008 116.511 107.544 116.511 108.216C116.511 108.728 116.671 109.152 116.991 109.488C117.311 109.808 117.815 110.048 118.503 110.208L120.663 110.688C121.751 110.928 122.559 111.296 123.087 111.792C123.615 112.288 123.879 112.944 123.879 113.76C123.879 114.464 123.687 115.08 123.303 115.608C122.919 116.12 122.383 116.512 121.695 116.784C121.007 117.056 120.199 117.192 119.271 117.192ZM131.013 117.192C129.941 117.192 129.117 116.872 128.541 116.232C127.981 115.592 127.701 114.608 127.701 113.28V106.152H125.301V104.976H127.701V101.616L129.165 101.136V104.976H132.717V106.152H129.165V113.064C129.165 114.072 129.325 114.8 129.645 115.248C129.965 115.696 130.477 115.92 131.181 115.92C131.501 115.92 131.781 115.888 132.021 115.824C132.277 115.76 132.493 115.688 132.669 115.608V116.904C132.477 116.984 132.229 117.048 131.925 117.096C131.621 117.16 131.317 117.192 131.013 117.192ZM135.211 117V104.976H136.675V117H135.211ZM134.971 102.024V100.2H136.939V102.024H134.971ZM140.672 117V107.664C140.672 107.232 140.656 106.792 140.624 106.344C140.592 105.896 140.544 105.44 140.48 104.976H141.92L142.136 107.736H141.848C142.2 106.776 142.768 106.04 143.552 105.528C144.336 105.016 145.248 104.76 146.288 104.76C147.712 104.76 148.784 105.136 149.504 105.888C150.24 106.64 150.608 107.816 150.608 109.416V117H149.144V109.536C149.144 108.304 148.896 107.416 148.4 106.872C147.904 106.312 147.136 106.032 146.096 106.032C144.88 106.032 143.912 106.4 143.192 107.136C142.488 107.872 142.136 108.864 142.136 110.112V117H140.672ZM159.107 117.192C158.019 117.192 157.075 116.944 156.275 116.448C155.475 115.952 154.859 115.24 154.427 114.312C153.995 113.384 153.779 112.272 153.779 110.976C153.779 109.68 153.995 108.576 154.427 107.664C154.875 106.736 155.499 106.024 156.299 105.528C157.099 105.016 158.035 104.76 159.107 104.76C160.211 104.76 161.163 105.048 161.963 105.624C162.779 106.2 163.315 106.984 163.571 107.976H163.283L163.523 104.976H164.939C164.891 105.44 164.843 105.896 164.795 106.344C164.763 106.792 164.747 107.232 164.747 107.664V117H163.283V114H163.547C163.291 114.992 162.755 115.776 161.939 116.352C161.139 116.912 160.195 117.192 159.107 117.192ZM159.299 115.944C160.531 115.944 161.507 115.52 162.227 114.672C162.947 113.824 163.307 112.592 163.307 110.976C163.307 109.36 162.947 108.128 162.227 107.28C161.507 106.432 160.531 106.008 159.299 106.008C158.067 106.008 157.083 106.432 156.347 107.28C155.627 108.128 155.267 109.36 155.267 110.976C155.267 112.592 155.627 113.824 156.347 114.672C157.083 115.52 158.067 115.944 159.299 115.944ZM172.614 117.192C171.542 117.192 170.718 116.872 170.142 116.232C169.582 115.592 169.302 114.608 169.302 113.28V106.152H166.902V104.976H169.302V101.616L170.766 101.136V104.976H174.318V106.152H170.766V113.064C170.766 114.072 170.926 114.8 171.246 115.248C171.566 115.696 172.078 115.92 172.782 115.92C173.102 115.92 173.382 115.888 173.622 115.824C173.878 115.76 174.094 115.688 174.27 115.608V116.904C174.078 116.984 173.83 117.048 173.526 117.096C173.222 117.16 172.918 117.192 172.614 117.192ZM176.812 117V104.976H178.276V117H176.812ZM176.572 102.024V100.2H178.54V102.024H176.572ZM187.025 117.192C185.889 117.192 184.905 116.944 184.073 116.448C183.257 115.952 182.625 115.24 182.177 114.312C181.729 113.384 181.505 112.272 181.505 110.976C181.505 109.696 181.729 108.592 182.177 107.664C182.625 106.736 183.257 106.024 184.073 105.528C184.905 105.016 185.889 104.76 187.025 104.76C188.145 104.76 189.113 105.016 189.929 105.528C190.761 106.024 191.401 106.736 191.849 107.664C192.313 108.592 192.545 109.696 192.545 110.976C192.545 112.272 192.313 113.384 191.849 114.312C191.401 115.24 190.761 115.952 189.929 116.448C189.113 116.944 188.145 117.192 187.025 117.192ZM187.025 115.944C188.241 115.944 189.217 115.52 189.953 114.672C190.689 113.824 191.057 112.592 191.057 110.976C191.057 109.36 190.689 108.128 189.953 107.28C189.217 106.432 188.241 106.008 187.025 106.008C185.793 106.008 184.809 106.432 184.073 107.28C183.353 108.128 182.993 109.36 182.993 110.976C182.993 112.592 183.353 113.824 184.073 114.672C184.809 115.52 185.793 115.944 187.025 115.944ZM195.75 117V107.664C195.75 107.232 195.734 106.792 195.702 106.344C195.67 105.896 195.622 105.44 195.558 104.976H196.998L197.214 107.736H196.926C197.278 106.776 197.846 106.04 198.63 105.528C199.414 105.016 200.326 104.76 201.366 104.76C202.79 104.76 203.862 105.136 204.582 105.888C205.318 106.64 205.686 107.816 205.686 109.416V117H204.222V109.536C204.222 108.304 203.974 107.416 203.478 106.872C202.982 106.312 202.214 106.032 201.174 106.032C199.958 106.032 198.99 106.4 198.27 107.136C197.566 107.872 197.214 108.864 197.214 110.112V117H195.75Z" fill="#252525"/>
</svg>
